<svg id="Ebene_1" data-name="Ebene 1" xmlns="http://www.w3.org/2000/svg" width="423.2252" height="75" viewBox="0 0 423.2252 75"><defs><style>.cls-1{fill:#d50000;}.cls-2{fill:#edf5f5;}</style></defs><title>logo_bright</title><path class="cls-1" d="M103.3417,5.2939c.0393-.1081.0692-.2137.1022-.32.0434-.101.0887-.2014.1261-.304.9386-2.5788-.3913-4.67-2.97-4.67-.0142,0-.0287.002-.043.0021H33.2355c-.0981,0-.1968.0083-.2953.0131C32.8428.0088,32.7469,0,32.6456,0a7.3889,7.3889,0,0,0-6.307,4.5194c-.02.051-.0454.1009-.0641.1524L24.5733,9.3457h-.0016L6.859,58.0109H33.1917l11.5307-31.68h7.6429l-11.5307,31.68H50.18l11.5307-31.68h7.6429l-11.5307,31.68h9.3457L78.7,26.3306l3.4015-9.3457H38.7783l-3.4016,9.3457L27.2476,48.6652H19.6062l13.6854-37.6a2.74,2.74,0,0,1,2.2857-1.7171H90.86a1.1622,1.1622,0,0,1,1.0358,1.7171L72.6539,63.9309a2.73,2.73,0,0,1-2.3508,1.7234H4.08L.6782,75H73.3021a7.3974,7.3974,0,0,0,6.3717-4.676l1.7-4.67h-.0011Z" transform="translate(-0.6782)"/><path class="cls-2" d="M122.166,27.8848h1.95V48.9434h-5.49V39.2539l-4.47,4.68h-.63l-4.47-4.68v9.6895h-5.49V27.8848h1.95l8.34,9.0893Z" transform="translate(-0.6782)"/><path class="cls-2" d="M141.7261,32.7144h-7.62v3h7.02v4.7993h-7.02v3.42h7.89v5.01H128.6167V27.9448h13.1094Z" transform="translate(-0.6782)"/><path class="cls-2" d="M144.0962,32.7446v-4.8h15.6v4.8h-5.13V48.9434h-5.31V32.7446Z" transform="translate(-0.6782)"/><path class="cls-2" d="M172.5356,44.5039v4.4395H161.7061V44.5039h2.67v-12.12h-2.43v-4.44h10.3491v4.44h-2.43v12.12Z" transform="translate(-0.6782)"/><path class="cls-2" d="M181.7158,38.1143V48.9434h-5.49V27.8545h1.71l10.9493,10.35V27.9448h5.49V49.0029h-1.62Z" transform="translate(-0.6782)"/><path class="cls-2" d="M202.5952,34.3643h-4.53c-.09-4.32,2.52-6.8394,6.72-6.8394,5.67,0,8.43,5.64,4.98,10.71,0,.0595-.06.33-4.08,5.85h5.91v4.8594H197.8252v-1.17l7.29-10.6792c1.44-2.16,1.86-4.68-.57-4.77A1.8631,1.8631,0,0,0,202.5952,34.3643Z" transform="translate(-0.6782)"/><path class="cls-2" d="M237.8457,27.9746c6.8389,0,10.35,5.22,10.35,10.38.09,5.2793-3.3906,10.5889-10.35,10.5889h-8.01V27.9746Zm-.06,16.0186c3.33,0,4.92-2.7891,4.92-5.5791,0-2.76-1.68-5.52-4.92-5.52h-2.46V43.9932Z" transform="translate(-0.6782)"/><path class="cls-2" d="M261.2451,49.333c-5.55,0-10.74-3.6-10.74-10.8887,0-7.26,5.37-10.9194,10.83-10.9194,5.3691,0,10.7089,3.66,10.7089,10.9194C272.0439,44.8633,267.6045,49.333,261.2451,49.333Zm.0293-5.1894a5.3174,5.3174,0,0,0,5.28-5.6993c0-3.75-2.61-5.7-5.22-5.7-2.7305,0-5.34,1.86-5.34,5.7C255.9951,42.1943,258.5752,44.1436,261.2744,44.1436Z" transform="translate(-0.6782)"/><path class="cls-2" d="M288.124,28.3047l3.6895,11.4892h.09l1.47-6.12,1.95-5.73h5.76v.81l-7.499,20.3984h-2.91l-3.63-9.6h-.09l-3.4805,9.6h-3.0595l-7.5-20.3984v-.81h5.76l1.98,5.73,1.59,6.12h.09l3.54-11.4892Z" transform="translate(-0.6782)"/><path class="cls-2" d="M309.0039,38.1143V48.9434h-5.4893V27.8545h1.71l10.9492,10.35V27.9448h5.49V49.0029h-1.62Z" transform="translate(-0.6782)"/><path class="cls-2" d="M331.6533,44.0234h7.59v4.92H326.1641V27.9448h5.4892Z" transform="translate(-0.6782)"/><path class="cls-2" d="M351.2744,49.333c-5.55,0-10.74-3.6-10.74-10.8887,0-7.26,5.37-10.9194,10.83-10.9194,5.3691,0,10.7089,3.66,10.7089,10.9194C362.0732,44.8633,357.6338,49.333,351.2744,49.333Zm.0293-5.1894a5.3174,5.3174,0,0,0,5.28-5.6993c0-3.75-2.61-5.7-5.22-5.7-2.7305,0-5.34,1.86-5.34,5.7C346.0244,42.1943,348.6045,44.1436,351.3037,44.1436Z" transform="translate(-0.6782)"/><path class="cls-2" d="M369.2734,46.333l-1.1992,2.61h-5.73v-.75l9.63-20.4585h2.52l9.54,20.4585v.75h-5.67l-1.2295-2.61Zm1.7705-4.5889h4.35l-2.19-5.07Z" transform="translate(-0.6782)"/><path class="cls-2" d="M393.9941,27.9746c6.8389,0,10.35,5.22,10.35,10.38.09,5.2793-3.3907,10.5889-10.35,10.5889h-8.01V27.9746Zm-.06,16.0186c3.33,0,4.92-2.7891,4.92-5.5791,0-2.76-1.68-5.52-4.92-5.52h-2.46V43.9932Z" transform="translate(-0.6782)"/><path class="cls-2" d="M411.9336,42.4941c0,1.4395,1.6494,2.1592,3.33,2.1592,1.56,0,3.209-.72,3.209-1.98,0-2.01-2.34-2.1-3.8692-2.1894-3.84-.24-7.68-1.77-7.68-6.15,0-4.56,3.8692-6.87,8.1592-6.87,4.05,0,8.16,2.31,8.07,6.87h-5.13c-.03-1.44-1.38-2.04-2.85-2.04-1.23,0-2.85.33-2.85,1.92,0,1.41,1.2,1.74,3.21,1.95,4.47.39,8.37,1.44,8.37,6.5395,0,4.4092-4.29,6.7188-8.58,6.7188-4.4394,0-8.6992-2.22-8.6093-6.9288Z" transform="translate(-0.6782)"/><path class="cls-1" d="M218.0635,33.7544a2.9777,2.9777,0,0,1,5.9394,0,2.98,2.98,0,0,1-5.9394,0Zm0,9a2.9777,2.9777,0,0,1,5.9394,0,2.98,2.98,0,0,1-5.9394,0Z" transform="translate(-0.6782)"/></svg>